<svg width="104" height="27" viewBox="0 0 104 27" fill="none" xmlns="http://www.w3.org/2000/svg">
<g clip-path="url(#clip0_39207_30)">
<mask id="mask0_39207_30" style="mask-type:luminance" maskUnits="userSpaceOnUse" x="0" y="0" width="104" height="27">
<path d="M103.242 0.5H0.339844V26.5H103.242V0.5Z" fill="white"/>
</mask>
<g mask="url(#mask0_39207_30)">
<path d="M21.0527 1.03689H24.5602V3.65742C25.1606 2.6471 26.0138 1.87357 27.1513 1.32105C28.2889 0.768528 29.5687 0.484375 31.0222 0.484375C32.776 0.484375 34.3243 0.894818 35.6831 1.7157C37.0418 2.53659 38.0846 3.68899 38.8272 5.1729C39.5697 6.65681 39.9489 8.36173 39.9489 10.2877C39.9489 12.2136 39.5697 13.9659 38.8272 15.434C38.0846 16.9179 37.026 18.0703 35.6831 18.8912C34.3401 19.7121 32.776 20.1225 31.0222 20.1225C29.6793 20.1225 28.4943 19.8699 27.4515 19.3963C26.4088 18.907 25.5872 18.2124 25.0026 17.3125V26.4686H21.0685V1.03689H21.0527ZM26.4404 14.8341C27.4515 16.0023 28.6997 16.5864 30.3586 16.5864C32.0176 16.5864 33.2973 16.0023 34.3243 14.8341C35.3513 13.6659 35.8569 12.2136 35.8569 10.3192C35.8569 8.42487 35.3513 7.00411 34.3243 5.83592C33.2973 4.66774 32.0176 4.08365 30.3586 4.08365C28.6997 4.08365 27.4515 4.66774 26.4404 5.83592C25.4292 7.00411 24.9236 8.44066 24.9236 10.3192C24.9236 12.1978 25.4292 13.6659 26.4404 14.8341Z" fill="#FAFAFA"/>
<path d="M46.5217 18.9224C45.163 18.1015 44.1202 16.9491 43.3776 15.4652C42.635 13.9813 42.2559 12.2606 42.2559 10.3189C42.2559 8.37719 42.635 6.68806 43.3776 5.20415C44.1202 3.72024 45.1788 2.56784 46.5217 1.74695C47.8647 0.926068 49.4288 0.515625 51.1826 0.515625C52.6203 0.515625 53.9001 0.783992 55.0219 1.32073C56.1436 1.85746 57.0126 2.6152 57.6288 3.59395V1.03657H61.1047V19.6012H57.6288V17.0123C57.0126 17.991 56.1436 18.7488 55.0219 19.3171C53.9001 19.8696 52.6203 20.1538 51.1826 20.1538C49.4288 20.1538 47.8805 19.7433 46.5217 18.9224ZM47.8489 14.8654C48.86 16.0178 50.1872 16.5861 51.8146 16.5861C53.4419 16.5861 54.7533 16.0178 55.7486 14.8654C56.744 13.713 57.2338 12.1975 57.2338 10.3189C57.2338 8.44034 56.744 6.95643 55.7486 5.80403C54.7533 4.65163 53.4419 4.08332 51.8146 4.08332C50.1872 4.08332 48.86 4.66742 47.8489 5.80403C46.8377 6.95643 46.3163 8.45612 46.3163 10.3189C46.3163 12.1817 46.8219 13.713 47.8489 14.8654Z" fill="#FAFAFA"/>
<path d="M65.8604 23.0272H74.6292C75.8931 23.0272 76.8569 22.6799 77.5205 22.0011C78.184 21.3223 78.5 20.3277 78.5 19.049V16.4127C77.8365 17.281 77.0307 17.944 76.0669 18.3702C75.1031 18.7965 74.0446 19.0017 72.8754 19.0017C71.1533 19.0017 69.6049 18.6228 68.262 17.8493C66.9032 17.0758 65.8604 15.9865 65.1179 14.5657C64.3753 13.145 63.9961 11.5348 63.9961 9.70357C63.9961 7.87236 64.3753 6.30952 65.1179 4.92032C65.8604 3.53113 66.919 2.44188 68.262 1.68414C69.6207 0.910609 71.1533 0.531738 72.8754 0.531738C74.092 0.531738 75.2137 0.752746 76.2407 1.21055C77.2677 1.66835 78.1366 2.33137 78.8318 3.23119V1.0369H82.3077V18.7333C82.3077 21.3538 81.6441 23.3113 80.3328 24.59C79.0214 25.8687 77.1571 26.5002 74.7713 26.5002H65.8446V23.0272H65.8604ZM69.5101 13.8396C70.4739 14.8973 71.722 15.434 73.2546 15.434C74.7872 15.434 76.0511 14.8973 76.9991 13.8396C77.9628 12.7819 78.4368 11.3927 78.4368 9.70357C78.4368 8.01443 77.9628 6.6726 76.9991 5.63071C76.0353 4.58881 74.7872 4.06786 73.2546 4.06786C71.722 4.06786 70.4581 4.58881 69.5101 5.63071C68.5463 6.6726 68.0724 8.03022 68.0724 9.70357C68.0724 11.3769 68.5463 12.7819 69.5101 13.8396Z" fill="#FAFAFA"/>
<path d="M87.774 17.123C86.0835 15.4654 85.2461 13.1606 85.2461 10.2243C85.2461 8.26685 85.6253 6.56193 86.3837 5.09381C87.142 3.62568 88.248 2.48907 89.6068 1.69976C90.9655 0.894657 92.5613 0.5 94.315 0.5C97.0641 0.5 99.2444 1.33667 100.84 2.99423C102.436 4.65179 103.242 7.01973 103.242 9.87705C103.242 10.2875 103.21 10.8874 103.131 11.6451H89.1802C89.2908 13.208 89.8595 14.2183 90.9181 15.0707C91.9767 15.9232 93.5092 16.2705 95.5158 16.2705H102.088V19.6172H95.2314C91.9135 19.6172 89.4646 18.7805 87.7898 17.123H87.774ZM99.3234 8.61415V8.42471C99.3234 7.00395 98.8811 5.85155 97.9963 4.9833C97.1115 4.11506 95.895 3.67304 94.3308 3.67304C92.7667 3.67304 91.6133 4.13084 90.6811 5.03066C89.7489 5.94627 89.2592 7.13024 89.1802 8.59836H99.3234V8.61415Z" fill="#FAFAFA"/>
<path d="M0.339844 1.03662H4.9849L11.9525 10.3189H7.30742L0.339844 1.03662Z" fill="#FAFAFA"/>
<path d="M11.9527 10.3188L18.9202 19.617H14.2752L7.30762 10.3188H11.9527Z" fill="#FAFAFA"/>
<path d="M11.9525 10.3188L4.9849 19.617H0.339844L7.30742 10.3188H11.9525Z" fill="#FAFAFA"/>
<path d="M11.3996 4.87269L14.275 1.03662H18.9201L14.3698 7.09855C13.6273 8.09309 12.1421 8.09309 11.3996 7.09855C10.9098 6.43553 10.9098 5.53571 11.3996 4.87269Z" fill="#FAFAFA"/>
</g>
</g>
<defs>
<clipPath id="clip0_39207_30">
<rect width="104" height="26" fill="white" transform="translate(0 0.5)"/>
</clipPath>
</defs>
</svg>
