<svg width="20" height="20" viewBox="0 0 20 20" fill="none" xmlns="http://www.w3.org/2000/svg">
<path d="M7.94128 1.9429C8.71397 0.62493 10.6193 0.624932 11.392 1.9429L13.1178 4.88664C13.3998 5.36761 13.8697 5.70904 14.4143 5.8286L17.7473 6.5603C19.2395 6.8879 19.8283 8.69996 18.8136 9.8421L16.5472 12.3931C16.177 12.8099 15.9975 13.3624 16.052 13.9173L16.3861 17.3132C16.5357 18.8337 14.9942 19.9536 13.5944 19.3415L10.4679 17.9744C9.95707 17.751 9.37618 17.751 8.86535 17.9744L5.73883 19.3415C4.33903 19.9536 2.7976 18.8337 2.94716 17.3132L3.28122 13.9173C3.3358 13.3624 3.15629 12.8099 2.786 12.3931L0.519648 9.8421C-0.495038 8.69995 0.0937374 6.8879 1.58597 6.5603L4.91895 5.8286C5.46352 5.70904 5.93346 5.36761 6.21544 4.88664L7.94128 1.9429Z" fill="#FFCE22"/>
</svg>
