<svg width="150" height="150" viewBox="0 0 150 150" fill="none" xmlns="http://www.w3.org/2000/svg">
<g clip-path="url(#clip0_39367_797)">
<path d="M99.9989 125C113.832 125 124.999 113.834 124.999 100H149.998C149.998 127.667 127.582 150 99.9989 150C72.4158 150 49.9996 127.667 49.9996 100H74.9993C74.9993 113.834 86.1657 125 99.9989 125Z" fill="#423DFF"/>
<path d="M25 99.9993C25 113.832 36.166 124.999 50 124.999L50 149.998C22.333 149.998 -3.39123e-06 127.582 -2.18554e-06 99.9993C-9.79843e-07 72.4162 22.333 50 50 50L50 74.9997C36.166 74.9997 25 86.1661 25 99.9993Z" fill="#423DFF"/>
<path d="M49.9994 24.9997C36.1662 24.9997 24.9997 36.1662 24.9997 49.9994H0C0 22.4164 22.4164 0 49.9994 0C77.5824 0 99.9989 22.4164 99.9989 49.9994H74.9992C74.9992 36.1662 63.8326 24.9997 49.9994 24.9997Z" fill="#423DFF"/>
<path d="M124.998 49.9994C124.998 36.1662 113.832 24.9997 99.9987 24.9997V0C127.582 0 149.998 22.4164 149.998 49.9994C149.998 77.6658 127.582 99.9984 99.9987 99.9984V74.9987C113.832 74.9987 124.998 63.8326 124.998 49.9994Z" fill="#423DFF"/>
</g>
<defs>
<clipPath id="clip0_39367_797">
<rect width="150" height="150" fill="white"/>
</clipPath>
</defs>
</svg>
