<svg width="80" height="81" viewBox="0 0 80 81" fill="none" xmlns="http://www.w3.org/2000/svg">
<path d="M54 54.5C64.6731 51.9308 72 46.6265 72 40.5C72 34.3735 64.6731 29.0692 54 26.5C55.098 30.7126 55.716 35.4676 55.716 40.5C55.716 45.5324 55.098 50.2874 54 54.5Z" fill="#404040"/>
<path d="M26 54.5C15.3269 51.9308 8 46.6265 8 40.5C8 34.3735 15.3269 29.0692 26 26.5C24.902 30.7126 24.284 35.4676 24.284 40.5C24.284 45.5324 24.902 50.2874 26 54.5Z" fill="#404040"/>
<path d="M26 54.5C28.5692 65.1731 33.8735 72.5 40 72.5C46.1265 72.5 51.4308 65.1731 54 54.5C49.7874 55.598 45.0324 56.216 40 56.216C34.9676 56.216 30.2126 55.598 26 54.5Z" fill="#423DFF"/>
<path d="M26 26.5C28.5692 15.8269 33.8735 8.5 40 8.5C46.1265 8.5 51.4308 15.8269 54 26.5C49.7874 25.402 45.0324 24.784 40 24.784C34.9676 24.784 30.2126 25.402 26 26.5Z" fill="#423DFF"/>
</svg>
