<svg width="80" height="80" viewBox="0 0 80 80" fill="none" xmlns="http://www.w3.org/2000/svg">
<path d="M7.99902 30C7.99902 38.8744 13.2535 46.5216 20.8211 50H7.99902C7.99902 62.1503 17.8488 72 29.999 72C38.8734 72 46.5206 66.7455 49.999 59.1779V72C62.1493 72 71.999 62.1503 71.999 50C71.999 41.1256 66.7445 33.4784 59.177 30H71.999C71.999 17.8497 62.1493 8 49.999 8C41.1246 8 33.4775 13.2545 29.999 20.8221V8C17.8488 8 7.99902 17.8497 7.99902 30Z" fill="#404040"/>
<path d="M49.999 40C49.999 45.5228 45.5219 50 39.999 50C34.4762 50 29.999 45.5228 29.999 40C29.999 34.4772 34.4762 30 39.999 30C45.5219 30 49.999 34.4772 49.999 40Z" fill="#423DFF"/>
</svg>
