<svg width="80" height="80" viewBox="0 0 80 80" fill="none" xmlns="http://www.w3.org/2000/svg">
<rect width="80" height="80" fill="white"/>
<path d="M66.8045 13.1956C74.2991 20.6902 73.5896 33.551 65.2967 41.8439L50.2186 56.9219L23.0781 29.7815L38.1562 14.7034C46.4491 6.41048 59.3099 5.70096 66.8045 13.1956Z" fill="#423DFF"/>
<path d="M35.1405 72.0004L8 44.8599C16.3274 36.5325 29.1537 35.8575 36.6483 43.3521C44.143 50.8467 43.4679 63.673 35.1405 72.0004Z" fill="#404040"/>
<path d="M63.7889 70.4926L36.6484 43.3521C44.9758 35.0247 57.8021 34.3496 65.2968 41.8443C72.7914 49.3389 72.1163 62.1652 63.7889 70.4926Z" fill="#423DFF"/>
<path d="M36.6483 43.352L9.50781 16.2115C17.8352 7.88409 30.6615 7.20902 38.1561 14.7037C45.6508 22.1983 44.9757 35.0246 36.6483 43.352Z" fill="#423DFF"/>
</svg>
