<svg width="24" height="24" viewBox="0 0 24 24" fill="none" xmlns="http://www.w3.org/2000/svg">
<path d="M22.4025 2.17876L0.676014 10.8468C0.521921 10.9088 0.390564 11.0184 0.30031 11.1605C0.210056 11.3026 0.165418 11.47 0.172629 11.6393C0.17984 11.8086 0.238538 11.9714 0.340527 12.1049C0.442516 12.2384 0.582698 12.3359 0.741469 12.3838L6.26149 14.0639L8.32113 20.766C8.37009 20.9259 8.45862 21.07 8.57823 21.1844C8.6978 21.2987 8.84424 21.3795 9.00338 21.4186C9.16248 21.4578 9.32873 21.4541 9.48604 21.4078C9.64331 21.3615 9.78617 21.2744 9.90076 21.1547L12.7589 18.1701L18.3575 22.379C18.5152 22.4977 18.6995 22.5739 18.8935 22.6007C19.0874 22.6275 19.2849 22.6041 19.4677 22.5325C19.6505 22.4609 19.8128 22.3435 19.9398 22.191C20.0669 22.0385 20.1544 21.8558 20.1946 21.6596L23.8993 3.50131C23.9403 3.29989 23.9275 3.09088 23.8622 2.89629C23.7969 2.7017 23.6817 2.52874 23.5284 2.39563C23.3752 2.26253 23.1897 2.1742 22.9916 2.13997C22.7934 2.10573 22.59 2.12686 22.4025 2.20111V2.17876ZM19.6797 6.20004L9.59967 15.3462C9.49874 15.4366 9.43486 15.5627 9.42072 15.6992L9.03236 19.2379C9.02747 19.2621 9.01464 19.2837 8.99596 19.2993C8.97724 19.3149 8.9539 19.3234 8.92981 19.3234C8.90577 19.3234 8.88242 19.3149 8.86375 19.2993C8.84507 19.2837 8.8322 19.2621 8.82726 19.2379L7.23022 13.9656C7.19448 13.8479 7.1978 13.7214 7.23964 13.6058C7.28149 13.4902 7.35947 13.3921 7.46149 13.3267L19.3786 5.76217C19.4364 5.71952 19.5085 5.70213 19.5788 5.71386C19.6492 5.72559 19.7122 5.76547 19.7539 5.82472C19.7955 5.88397 19.8125 5.95774 19.801 6.0298C19.7895 6.10186 19.7506 6.16633 19.6928 6.20898L19.6797 6.20004Z" fill="#1A1A1A"/>
</svg>
