<svg width="24" height="24" viewBox="0 0 24 24" fill="none" xmlns="http://www.w3.org/2000/svg">
<path fill-rule="evenodd" clip-rule="evenodd" d="M1.68707 1.68707C0 3.37413 0 6.0894 0 11.52V12.48C0 17.9106 0 20.6259 1.68707 22.313C3.37413 24 6.0894 24 11.52 24H12.48C17.9106 24 20.6259 24 22.313 22.313C24 20.6259 24 17.9106 24 12.48V11.52C24 6.0894 24 3.37413 22.313 1.68707C20.6259 0 17.9106 0 12.48 0H11.52C6.0894 0 3.37413 0 1.68707 1.68707ZM4.0498 7.2998C4.1798 13.5398 7.29976 17.2898 12.7698 17.2898H13.0799V13.7198C15.0899 13.9198 16.6097 15.3898 17.2197 17.2898H20.0598C19.2798 14.4498 17.2297 12.8798 15.9497 12.2798C17.2297 11.5398 19.0297 9.7398 19.4597 7.2998H16.8797C16.3197 9.2798 14.6599 11.0798 13.0799 11.2498V7.2998H10.4998V14.2198C8.89975 13.8198 6.8798 11.8798 6.7898 7.2998H4.0498Z" fill="#FAFAFA"/>
</svg>
