<svg width="24" height="24" viewBox="0 0 24 24" fill="none" xmlns="http://www.w3.org/2000/svg">
<g clip-path="url(#clip0_39416_2365)">
<path fill-rule="evenodd" clip-rule="evenodd" d="M23.4048 9.24927C22.8019 6.6768 21.3472 4.38361 19.2769 2.74199C17.2065 1.10037 14.6422 0.206705 12 0.206055C11.2494 0.222866 10.5014 0.299913 9.76315 0.436454C7.96253 0.790543 6.27053 1.56348 4.824 2.69274C3.37747 3.82201 2.21706 5.27587 1.43661 6.93677C0.656167 8.59767 0.277608 10.419 0.33156 12.2533C0.385512 14.0876 0.870458 15.8835 1.74717 17.4957C1.8036 17.5792 1.84211 17.6735 1.86029 17.7726C1.87846 17.8717 1.8759 17.9736 1.85275 18.0717C1.30555 19.8573 0.801564 21.7053 0.316765 23.5101C0.235165 23.8317 0.235162 23.8317 0.537559 23.7453C2.45756 23.2317 4.31516 22.7469 6.21115 22.3053C6.27691 22.2731 6.34915 22.2563 6.42235 22.2563C6.4956 22.2563 6.56784 22.2731 6.63355 22.3053C8.62099 23.3364 10.8624 23.7764 13.0921 23.5729C15.3218 23.3694 17.4466 22.531 19.2145 21.1571C20.9824 19.7832 22.3194 17.9313 23.0672 15.8208C23.815 13.7103 23.9421 11.4298 23.4336 9.24927H23.4048ZM13.632 21.4989C13.1891 21.605 12.7328 21.6439 12.2784 21.6141C10.4283 21.6592 8.6016 21.1942 6.99835 20.2701C6.91579 20.2043 6.81787 20.1605 6.71376 20.1429C6.60965 20.1252 6.5028 20.1343 6.40315 20.1693C5.34235 20.4333 4.31037 20.7117 3.25917 20.9805C3.04317 21.0525 3.02396 21.0141 3.07196 20.7885C3.35036 19.8285 3.60956 18.8349 3.91676 17.8317C3.95718 17.7155 3.96691 17.5908 3.94505 17.4697C3.92319 17.3486 3.87046 17.2352 3.79196 17.1405C2.74516 15.5 2.21809 13.5817 2.27976 11.6366C2.34142 9.69159 2.98894 7.81051 4.13756 6.23967C6.61435 2.93726 10.008 1.56446 14.0448 2.42846C18.0816 3.29246 20.5728 5.85567 21.4752 9.81087C21.7721 11.0964 21.8022 12.4292 21.5634 13.7268C21.3246 15.0244 20.822 16.2592 20.0868 17.3548C19.3516 18.4504 18.3995 19.3835 17.2892 20.0963C16.1789 20.8091 14.9341 21.2864 13.632 21.4989Z" fill="#1A1A1A"/>
<path fill-rule="evenodd" clip-rule="evenodd" d="M15.048 17.4961C14.636 17.5217 14.2231 17.4646 13.8336 17.3281C11.2543 16.5429 9.01955 14.9023 7.49761 12.6769C6.8331 11.8783 6.36611 10.9344 6.13441 9.92167C6.00827 9.3533 6.03999 8.76131 6.22614 8.20965C6.41228 7.65803 6.74569 7.16781 7.19041 6.79207C7.41659 6.63947 7.67358 6.53848 7.94315 6.49615C8.21271 6.45386 8.48833 6.47128 8.75041 6.54727C8.85337 6.64307 8.94227 6.75295 9.01441 6.87367C9.34561 7.69927 9.70081 8.47207 10.0368 9.27367C10.0603 9.3532 10.0678 9.43658 10.0587 9.51899C10.0496 9.60141 10.0242 9.68119 9.98396 9.75367C9.78937 10.1041 9.54884 10.4269 9.26881 10.7137C9.21937 10.7493 9.17795 10.795 9.14718 10.8476C9.11641 10.9002 9.09702 10.9588 9.09025 11.0193C9.08348 11.0799 9.08943 11.1412 9.10782 11.1994C9.12615 11.2575 9.15644 11.3112 9.19681 11.3569C10.0936 12.928 11.5063 14.1406 13.1952 14.7889C13.2937 14.8465 13.4103 14.8647 13.5216 14.8397C13.633 14.8148 13.7307 14.7486 13.7952 14.6545C14.0976 14.3137 14.3904 13.9345 14.6688 13.5649C14.7384 13.4621 14.8431 13.3882 14.9634 13.3573C15.0836 13.3263 15.211 13.3404 15.3216 13.3969C15.8976 13.6657 16.4592 13.9345 17.0064 14.1841C17.16 14.2561 17.2704 14.3185 17.4048 14.3665C17.9808 14.6545 17.9808 14.6977 17.9136 15.3265C17.8368 16.5457 16.9008 17.1649 15.8256 17.4721C15.5703 17.5299 15.3063 17.538 15.048 17.4961Z" fill="#1A1A1A"/>
</g>
<defs>
<clipPath id="clip0_39416_2365">
<rect width="24" height="24" fill="white"/>
</clipPath>
</defs>
</svg>
